<svg xmlns="http://www.w3.org/2000/svg" width="512" height="512" viewBox="0 0 512 512" version="1.1">
	<path d="M 244 19.338 C 232.226 24.812, 183.311 48.258, 172.573 53.575 C 168.213 55.734, 164.503 57.950, 164.328 58.500 C 164.153 59.050, 167.326 61.203, 171.381 63.284 C 178.955 67.173, 182.892 70.445, 181.573 71.756 C 181.162 72.165, 167.027 72.541, 150.162 72.592 C 101.657 72.737, 101 72.764, 101 74.551 C 101 75.404, 103.680 79.566, 106.956 83.801 C 113.347 92.063, 127 115.402, 127 118.066 C 127 119.520, 122.540 119.741, 82.390 120.284 C 57.854 120.616, 37.637 121.030, 37.463 121.204 C 37.289 121.378, 37.397 124.283, 37.703 127.659 C 38.153 132.623, 38.665 133.987, 40.380 134.790 C 42.816 135.931, 72.367 157.256, 75.750 160.314 C 77.736 162.110, 78 163.314, 78 170.567 C 78 177.139, 77.683 178.908, 76.418 179.393 C 75.548 179.727, 64.298 180, 51.418 180 L 28 180 28 182.309 C 28 186.017, 29.841 187.695, 45.068 197.864 C 62.884 209.762, 64.446 211.741, 63.529 221.250 L 62.879 228 66.472 228 C 73.225 228, 76.805 230.344, 79.780 236.715 L 82.481 242.500 83.135 279 C 84.358 347.207, 84.155 401.406, 82.668 403.439 C 81.936 404.441, 79.573 405.544, 77.418 405.892 C 73.600 406.508, 73.492 406.639, 73.180 411.010 C 73.005 413.478, 72.105 416.334, 71.180 417.358 C 69.221 419.528, 60.257 424.168, 54.500 425.993 C 48.327 427.949, 45.585 431, 50 431 C 51.100 431, 52.900 431.900, 54 433 C 55.821 434.821, 56 436.333, 56 449.917 L 56 464.833 53.250 465.858 C 51.324 466.576, 69.518 466.876, 113.952 466.858 C 173.589 466.833, 177.482 466.939, 178.702 468.607 C 180.460 471.011, 180.337 474.520, 178.429 476.429 C 177.031 477.827, 169.303 478, 108.429 478 L 40 478 40.014 483.250 C 40.021 486.137, 40.299 489.512, 40.630 490.750 L 41.233 493 256.058 493 C 407.302 493, 471.077 492.684, 471.542 491.932 C 472.902 489.732, 473.286 479.295, 472.037 478.523 C 471.368 478.109, 440.050 477.846, 402.443 477.938 C 353.705 478.057, 333.466 477.784, 331.978 476.988 C 330.288 476.084, 329.949 475.088, 330.196 471.752 C 330.451 468.291, 330.900 467.543, 333 467.067 C 334.375 466.755, 363.738 466.725, 398.251 467 C 432.763 467.275, 461.001 467.376, 461.001 467.225 C 461 467.074, 459.864 466.518, 458.475 465.990 L 455.949 465.030 456.225 449.265 L 456.500 433.500 459.663 431.919 C 461.648 430.927, 462.554 429.896, 462.094 429.153 C 461.691 428.501, 457.568 426.367, 452.931 424.412 C 441.773 419.706, 438 416.793, 438 412.883 C 438 408.613, 436.320 406, 433.576 406 C 432.281 406, 430.256 405.212, 429.076 404.250 L 426.930 402.500 427.221 323 C 427.490 249.422, 427.645 243.157, 429.301 238.894 C 431.956 232.059, 435.823 228.819, 442.041 228.222 L 447.176 227.729 446.515 221.114 C 445.580 211.767, 447.160 209.804, 465.524 197.500 C 480.307 187.596, 484.648 183.248, 482.199 180.799 C 481.579 180.179, 472.818 179.850, 459.289 179.940 C 447.240 180.019, 436.621 179.792, 435.691 179.435 C 434.269 178.889, 434 177.292, 434 169.401 C 434 160.242, 434.072 159.951, 436.988 157.353 C 442.052 152.841, 464.303 137.608, 468.753 135.606 C 473.165 133.622, 473.956 131.959, 474.340 123.861 L 474.500 120.500 427.750 120.240 C 396.708 120.068, 381 119.636, 381 118.957 C 381 115.519, 396.703 90.779, 404.350 82.169 C 406.907 79.290, 409 76.048, 409 74.967 C 409 72.630, 413.142 72.819, 365.758 72.995 C 346.101 73.069, 329.583 72.860, 329.052 72.532 C 326.348 70.861, 333.693 65.172, 343.250 61.535 C 345.863 60.542, 348 59.419, 348 59.040 C 348 58.661, 328.603 48.762, 304.896 37.041 C 275.369 22.443, 260.486 15.603, 257.646 15.326 C 254.321 15.002, 251.619 15.796, 244 19.338 M 230 57.504 C 215.975 64.922, 203.663 72.003, 202.640 73.241 C 201.008 75.217, 200.864 76.563, 201.465 84.246 L 202.150 93 168.075 93 C 139.823 93, 134 93.235, 134 94.376 C 134 95.132, 135.180 98.395, 136.622 101.626 C 140.157 109.546, 150 135.180, 150.001 136.469 C 150.001 137.164, 137.786 137.404, 112.501 137.204 C 81.335 136.959, 75 137.140, 75 138.274 C 75 139.025, 78.375 141.812, 82.500 144.467 C 86.625 147.122, 90.024 150.016, 90.052 150.897 C 90.081 151.779, 90.060 158.198, 90.004 165.161 C 89.933 174.196, 90.256 178.040, 91.134 178.583 C 93.098 179.797, 418.115 180.009, 420.379 178.797 C 422.176 177.835, 422.260 176.868, 421.714 163.392 L 421.131 149.012 428.066 144.526 C 431.880 142.059, 435 139.620, 435 139.105 C 435 137.444, 421.174 136.857, 389.749 137.182 C 366.582 137.422, 358.999 137.209, 358.999 136.318 C 359 134.544, 364.551 119.828, 369.564 108.306 C 373.356 99.591, 374.776 94.666, 373.750 93.785 C 373.613 93.667, 359.100 93.330, 341.500 93.035 L 309.500 92.500 309.408 86 C 309.224 72.945, 309.298 73.217, 305.250 70.653 C 301.096 68.022, 256.622 43.995, 255.934 44.009 C 255.695 44.014, 244.025 50.087, 230 57.504 M 244.500 88.341 C 231.125 92.765, 222.108 101.664, 218.568 113.932 C 216.543 120.948, 216.566 131.647, 218.619 137.715 C 222.565 149.373, 232.641 159.295, 243.857 162.566 C 252.431 165.066, 265.003 164.212, 272.320 160.632 C 287.555 153.178, 296.052 136.595, 293.190 119.904 C 290.743 105.632, 284.033 96.718, 271.225 90.725 C 265.861 88.214, 263.051 87.562, 256.545 87.319 C 251.732 87.138, 246.893 87.549, 244.500 88.341 M 250.500 97.864 C 248.788 98.574, 248.428 99.902, 248 107.097 L 247.500 115.500 239.030 115.794 C 228.860 116.147, 227 117.333, 227 123.464 C 227 130.388, 228.561 131.538, 237.599 131.272 C 242.113 131.138, 245.901 131.503, 246.674 132.144 C 247.571 132.889, 248 135.802, 248 141.147 C 248 148.847, 248.070 149.076, 250.750 150.098 C 254.585 151.560, 261.750 150.336, 262.997 148.005 C 263.549 146.975, 264 143.010, 264 139.194 L 264 132.257 272.165 131.784 C 279.249 131.374, 280.584 130.997, 282.259 128.929 C 283.673 127.183, 284.038 125.623, 283.628 123.092 C 282.741 117.631, 280.945 116.561, 271.718 116 L 263.500 115.500 263.500 107.803 C 263.500 103.288, 263.019 99.625, 262.337 98.940 C 260.869 97.468, 253.148 96.766, 250.500 97.864 M 108.200 201.200 C 107.540 201.860, 107 204.544, 107 207.165 C 107 211.038, 107.564 212.573, 110.013 215.362 C 115.714 221.855, 118.464 222.408, 147.029 222.797 C 172.087 223.139, 172.594 223.106, 174.501 220.999 C 177.217 217.997, 177.920 206.054, 175.590 202.497 L 173.954 200 141.677 200 C 117.906 200, 109.084 200.316, 108.200 201.200 M 185.667 200.667 C 185.300 201.033, 185.004 203.171, 185.010 205.417 C 185.022 210.537, 188.876 218.971, 192.510 221.829 L 195.270 224 254.439 224 L 313.608 224 316.753 220.750 C 322.211 215.111, 324.981 204.381, 321.800 201.200 C 320.890 200.290, 304.348 200, 253.467 200 C 216.543 200, 186.033 200.300, 185.667 200.667 M 332.571 201.571 C 331.447 202.696, 331 205.102, 331 210.024 C 331 217.968, 332.403 221.812, 335.595 222.613 C 336.833 222.924, 349.243 223.020, 363.173 222.827 C 386.240 222.508, 388.901 222.291, 393 220.405 C 399.711 217.316, 404 211.959, 404 206.665 C 404 204.319, 403.460 201.860, 402.800 201.200 C 401.914 200.314, 392.771 200, 367.871 200 C 338.542 200, 333.938 200.205, 332.571 201.571 M 120.354 234.638 C 119.174 234.898, 117.374 236.034, 116.354 237.161 C 114.598 239.101, 114.482 242.529, 114.152 301.986 C 113.913 344.947, 114.138 365.389, 114.863 366.745 C 115.721 368.347, 117.284 368.823, 123.033 369.235 C 132.173 369.888, 132.892 370.618, 130.620 376.935 C 129.644 379.652, 128.992 382.915, 129.172 384.187 C 129.476 386.332, 130.032 386.521, 136.842 386.796 C 141.395 386.979, 144.720 386.647, 145.592 385.923 C 147.591 384.265, 147.703 287.828, 145.708 286.173 C 144.998 285.583, 141.285 284.966, 137.458 284.800 L 130.500 284.500 130.229 264.787 L 129.958 245.074 132.438 243.448 C 134.114 242.350, 135.898 242.038, 137.937 242.486 C 144.299 243.883, 147.240 240.337, 142.943 236.449 C 141.297 234.958, 139.054 234.545, 131.693 234.375 C 126.637 234.259, 121.534 234.377, 120.354 234.638 M 369.250 235.973 C 366.261 237.330, 365 238.510, 365 239.951 C 365 241.669, 365.635 242, 368.929 242 C 375.775 242, 376 242.697, 376 263.871 C 376 277.105, 375.648 282.952, 374.800 283.800 C 374.140 284.460, 371.697 285, 369.371 285 C 361.597 285, 362 282.190, 362 336.371 C 362 372.549, 362.300 384.900, 363.200 385.800 C 363.931 386.531, 367.487 387, 372.293 387 L 380.185 387 379.641 381.750 C 379.342 378.863, 378.963 375.150, 378.799 373.500 L 378.500 370.500 385.703 370 C 389.665 369.725, 393.490 368.915, 394.203 368.200 C 395.231 367.170, 395.556 354.178, 395.772 305.472 C 396.077 236.861, 396.198 238.234, 389.568 235.464 C 384.557 233.370, 374.425 233.624, 369.250 235.973 M 186.165 237.597 C 184.572 238.713, 183.978 239.992, 184.193 241.847 C 184.500 244.498, 184.505 244.500, 193.500 244.500 L 202.500 244.500 202.822 241.690 C 202.999 240.144, 202.607 238.231, 201.950 237.440 C 200.247 235.388, 189.161 235.498, 186.165 237.597 M 304.571 237.571 C 302.896 239.247, 302.628 240.868, 303.607 243.418 C 304.452 245.621, 323.134 245.748, 324.947 243.564 C 326.555 241.626, 324.717 238.223, 321.374 236.952 C 317.216 235.371, 306.372 235.771, 304.571 237.571 M 215.200 238.200 C 214.540 238.860, 214 240.155, 214 241.078 C 214 245.119, 215.528 245.275, 253.264 245.094 C 285.651 244.939, 289.633 244.745, 290.750 243.269 C 292.372 241.127, 292.327 240.469, 290.429 238.571 C 289.058 237.201, 284.230 237, 252.629 237 C 225.784 237, 216.089 237.311, 215.200 238.200 M 158.575 240.878 C 158.277 241.361, 158.010 278.337, 157.982 323.048 C 157.942 388.183, 158.187 404.502, 159.216 405.155 C 161.129 406.368, 165.433 406.167, 166.800 404.800 C 167.713 403.887, 168 384.457, 168 323.455 C 168 247.082, 167.914 243.232, 166.171 241.655 C 164.228 239.896, 159.482 239.411, 158.575 240.878 M 96.035 242.934 C 94.457 245.883, 94.616 366.216, 96.200 367.800 C 96.860 368.460, 98.570 369, 100 369 C 101.430 369, 103.140 368.460, 103.800 367.800 C 105.384 366.216, 105.543 245.883, 103.965 242.934 C 103.303 241.698, 101.873 241, 100 241 C 98.127 241, 96.697 241.698, 96.035 242.934 M 341.914 242.603 C 340.727 244.033, 340.454 257.015, 340.216 323.548 C 339.959 395.207, 340.085 402.942, 341.537 404.394 C 343.497 406.354, 348.343 406.497, 349.884 404.640 C 350.706 403.650, 350.942 381.321, 350.756 322.390 L 350.500 241.500 346.914 241.199 C 344.476 240.995, 342.876 241.444, 341.914 242.603 M 405.691 241.694 C 405.288 242.348, 404.520 363.343, 404.891 367.807 C 404.967 368.715, 406.299 369.021, 409.250 368.807 L 413.500 368.500 414.109 339 C 414.444 322.775, 414.775 295.325, 414.845 278 C 414.984 243.096, 414.779 241.727, 409.321 241.194 C 407.598 241.025, 405.964 241.250, 405.691 241.694 M 136.531 258.022 C 136.183 259.408, 136.034 263.678, 136.199 267.511 C 136.445 273.209, 136.819 274.540, 138.250 274.813 C 139.797 275.108, 140 274.232, 140 267.264 C 140 262.038, 139.522 258.729, 138.581 257.442 C 137.208 255.564, 137.143 255.583, 136.531 258.022 M 185.469 261.034 C 183.715 262.972, 183.625 266.771, 183.564 341.241 C 183.512 405.030, 183.751 420.066, 184.866 422.957 C 185.795 425.368, 186.165 430.276, 186.025 438.321 C 185.773 452.717, 186.463 454, 194.455 454 C 197.285 454, 200.140 453.460, 200.800 452.800 C 201.716 451.884, 202 429.452, 202 357.935 C 202 264.691, 201.991 264.258, 199.927 261.635 C 198.157 259.384, 197.087 259, 192.582 259 C 188.550 259, 186.877 259.479, 185.469 261.034 M 308.389 259.926 C 307.228 260.425, 306.005 261.544, 305.671 262.414 C 304.863 264.519, 304.686 451.684, 305.491 452.986 C 305.836 453.544, 309.186 454, 312.937 454 C 322.270 454, 322.500 453.629, 322.500 438.590 C 322.500 428.962, 322.856 425.848, 324.250 423.300 C 325.875 420.328, 326 414.455, 326 341.172 C 326 269.948, 325.843 262.115, 324.395 260.913 C 322.482 259.325, 311.383 258.641, 308.389 259.926 M 363.760 266.250 C 363.243 274.296, 364.301 276.674, 367.888 275.535 C 369.745 274.946, 370 274.099, 370 268.514 C 370 260.638, 369.398 259, 366.506 259 C 364.385 259, 364.193 259.506, 363.760 266.250 M 213.250 265.022 L 211 265.936 211 358.845 C 211 436.181, 211.229 451.945, 212.367 452.889 C 213.347 453.703, 224.877 453.949, 253.117 453.762 L 292.500 453.500 292.817 450.744 C 293.009 449.078, 292.587 447.779, 291.750 447.457 C 290.988 447.165, 274.196 446.830, 254.433 446.713 L 218.500 446.500 218 360 C 217.725 312.425, 217.861 273.050, 218.301 272.500 C 218.808 271.867, 232.400 271.491, 255.301 271.476 C 275.211 271.462, 292.063 271.098, 292.750 270.667 C 294.645 269.477, 294.251 267.289, 291.837 265.598 C 289.997 264.310, 284.115 264.085, 252.587 264.096 C 232.189 264.103, 214.488 264.520, 213.250 265.022 M 230 283.946 L 227.500 284.589 227.235 314.924 C 227.047 336.473, 227.300 345.656, 228.108 346.630 C 228.785 347.446, 231.209 348, 234.103 348 C 238.422 348, 239.030 348.272, 239.575 350.443 C 240.443 353.900, 239.421 354.985, 235.191 355.100 C 226.713 355.329, 224.070 358.125, 227.453 363.288 C 228.915 365.520, 228.883 365.878, 227.012 368.258 C 223.662 372.516, 226.059 374.953, 233.628 374.986 C 236.920 375.001, 239.620 377.188, 238.527 378.956 C 238.172 379.530, 236.304 380, 234.375 380 C 226.729 380, 227 378.976, 227 407.913 C 227 427.372, 227.309 434.009, 228.250 434.783 C 229.288 435.637, 252.772 436.527, 263.275 436.110 C 266.604 435.978, 267.542 433.965, 269.070 423.680 C 269.726 419.264, 270.976 415.345, 272.318 413.500 C 274.498 410.503, 274.500 410.435, 274.772 348.287 L 275.044 286.075 272.766 284.582 C 270.933 283.381, 266.784 283.111, 251.494 283.196 C 241.047 283.254, 231.375 283.591, 230 283.946 M 287.343 286.195 C 286.879 286.913, 286.364 320.613, 286.197 361.084 C 285.927 426.626, 286.064 434.808, 287.447 435.956 C 288.692 436.989, 289.299 436.997, 290.506 435.995 C 291.828 434.898, 291.981 425.585, 291.756 360.136 C 291.521 291.598, 291.365 285.501, 289.843 285.208 C 288.932 285.033, 287.807 285.477, 287.343 286.195 M 194 371.968 C 194 384.939, 194.585 386.363, 198.954 384.025 C 200.936 382.964, 201.047 382.216, 200.782 371.698 L 200.500 360.500 197.250 360.187 L 194 359.873 194 371.968 M 95.619 374.550 C 95.279 375.438, 95 385.491, 95 396.891 C 95 413.243, 95.300 418.027, 96.423 419.559 C 97.650 421.231, 99.069 421.496, 106.673 421.468 C 111.528 421.450, 116.296 421.123, 117.268 420.742 C 118.900 420.102, 119.016 418.249, 118.768 396.774 L 118.500 373.500 107.369 373.218 C 97.881 372.978, 96.147 373.175, 95.619 374.550 M 391 396.948 L 391 420.962 393.250 421.525 C 394.488 421.835, 399.550 421.956, 404.500 421.794 L 413.500 421.500 414.010 400 C 414.290 388.175, 414.258 377.375, 413.939 376 C 413.369 373.539, 413.185 373.496, 402.180 373.217 L 391 372.934 391 396.948 M 132.250 397.031 C 130.118 397.888, 130 398.483, 130 408.386 C 130 420.415, 130.397 422, 133.407 422 C 137.017 422, 138 420.043, 138 412.857 L 138 406.115 142.250 405.807 C 146.376 405.509, 146.509 405.390, 146.810 401.748 C 147.081 398.485, 146.779 397.866, 144.495 396.998 C 141.305 395.785, 135.310 395.801, 132.250 397.031 M 366.225 396.659 C 363.285 397.288, 360.911 400.943, 361.638 403.722 C 362.103 405.502, 363.054 405.954, 366.853 406.199 L 371.500 406.500 371.500 413.374 C 371.500 418.828, 371.862 420.480, 373.250 421.369 C 374.527 422.187, 375.473 422.192, 376.750 421.388 C 378.209 420.470, 378.548 418.488, 378.786 409.479 C 378.943 403.535, 378.699 398.299, 378.245 397.845 C 377.202 396.802, 369.237 396.016, 366.225 396.659 M 67.213 434.847 C 66.357 435.390, 65.896 438.287, 65.835 443.502 C 65.759 450.011, 66.054 451.567, 67.575 452.678 C 69.061 453.765, 79.570 453.968, 123.453 453.759 L 177.500 453.500 177.792 445.153 C 177.977 439.859, 177.658 436.293, 176.920 435.403 C 175.946 434.231, 166.944 434.003, 122.128 434.015 C 92.632 434.024, 67.921 434.398, 67.213 434.847 M 332.250 434.662 C 330.567 435.341, 330.523 451.123, 332.200 452.800 C 333.104 453.704, 346.906 454, 388.177 454 L 442.954 454 444.611 451.470 C 446.628 448.393, 446.076 436.297, 443.855 434.889 C 442.445 433.996, 334.447 433.776, 332.250 434.662" stroke="none" fill="black" fill-rule="evenodd"/>
</svg>